<svg width="28" height="20" viewBox="0 0 28 20" fill="none" xmlns="http://www.w3.org/2000/svg">
<path d="M9.75016 19.2501C9.5835 19.2501 9.43072 19.2223 9.29183 19.1667C9.15294 19.1112 9.01405 19.014 8.87516 18.8751L1.3335 11.3334C1.0835 11.0834 0.958496 10.7779 0.958496 10.4167C0.958496 10.0556 1.0835 9.75008 1.3335 9.50008C1.5835 9.25008 1.87516 9.12508 2.2085 9.12508C2.54183 9.12508 2.8335 9.25008 3.0835 9.50008L9.75016 16.1667L24.8752 1.04175C25.1252 0.791748 25.4238 0.666748 25.771 0.666748C26.1182 0.666748 26.4168 0.791748 26.6668 1.04175C26.9168 1.29175 27.0418 1.59036 27.0418 1.93758C27.0418 2.2848 26.9168 2.58341 26.6668 2.83341L10.6252 18.8751C10.4863 19.014 10.3474 19.1112 10.2085 19.1667C10.0696 19.2223 9.91683 19.2501 9.75016 19.2501Z" fill="black"/>
</svg>
