<svg width="40" height="40" viewBox="0 0 40 40" fill="none" xmlns="http://www.w3.org/2000/svg">
<circle cx="20" cy="20" r="20" fill="white" fill-opacity="0.8"/>
<g clip-path="url(#clip0_1287_2007)">
<path d="M28.0002 14.6654H26.6668V11.9987C26.6668 8.3187 23.6802 5.33203 20.0002 5.33203C16.3202 5.33203 13.3335 8.3187 13.3335 11.9987V14.6654H12.0002C10.5335 14.6654 9.3335 15.8654 9.3335 17.332V30.6654C9.3335 32.132 10.5335 33.332 12.0002 33.332H28.0002C29.4668 33.332 30.6668 32.132 30.6668 30.6654V17.332C30.6668 15.8654 29.4668 14.6654 28.0002 14.6654ZM16.0002 11.9987C16.0002 9.78536 17.7868 7.9987 20.0002 7.9987C22.2135 7.9987 24.0002 9.78536 24.0002 11.9987V14.6654H16.0002V11.9987ZM28.0002 30.6654H12.0002V17.332H28.0002V30.6654ZM20.0002 26.6654C21.4668 26.6654 22.6668 25.4654 22.6668 23.9987C22.6668 22.532 21.4668 21.332 20.0002 21.332C18.5335 21.332 17.3335 22.532 17.3335 23.9987C17.3335 25.4654 18.5335 26.6654 20.0002 26.6654Z" fill="#FDC62E"/>
</g>
<defs>
<clipPath id="clip0_1287_2007">
<rect width="32" height="32" fill="white" transform="translate(4 4)"/>
</clipPath>
</defs>
</svg>
