<svg width="40" height="40" viewBox="0 0 40 40" fill="none" xmlns="http://www.w3.org/2000/svg">
<path fill-rule="evenodd" clip-rule="evenodd" d="M20 40C31.0457 40 40 31.0457 40 20C40 8.9543 31.0457 0 20 0C8.9543 0 0 8.9543 0 20C0 31.0457 8.9543 40 20 40ZM18 12C18 10.8954 18.8954 10 20 10C21.1046 10 22 10.8954 22 12V22C22 23.1046 21.1046 24 20 24C18.8954 24 18 23.1046 18 22V12ZM18 28C18 26.8954 18.8954 26 20 26C21.1046 26 22 26.8954 22 28C22 29.1046 21.1046 30 20 30C18.8954 30 18 29.1046 18 28Z" fill="#E1E5E6"/>
</svg>
