<svg width="24" height="24" viewBox="0 0 24 24" fill="none" xmlns="http://www.w3.org/2000/svg">
<path d="M14.8866 17.45C15.02 17.2833 15.0908 17.1 15.0991 16.9C15.1075 16.7 15.0366 16.525 14.8866 16.375L10.4866 11.975L14.9116 7.55C15.045 7.41667 15.1075 7.2375 15.0991 7.0125C15.0908 6.7875 15.02 6.60834 14.8866 6.475C14.72 6.30834 14.5408 6.22917 14.3491 6.2375C14.1575 6.24584 13.9866 6.325 13.8366 6.475L8.86162 11.45C8.77829 11.5333 8.71995 11.6167 8.68662 11.7C8.65328 11.7833 8.63662 11.875 8.63662 11.975C8.63662 12.075 8.65328 12.1667 8.68662 12.25C8.71995 12.3333 8.77829 12.4167 8.86162 12.5L13.8116 17.45C13.9616 17.6 14.1366 17.6708 14.3366 17.6625C14.5366 17.6542 14.72 17.5833 14.8866 17.45V17.45Z" fill="black"/>
</svg>
