<svg width="8" height="12" viewBox="0 0 8 12" fill="none" xmlns="http://www.w3.org/2000/svg">
<path d="M6.88662 11.4494C7.01995 11.2828 7.09078 11.0994 7.09912 10.8994C7.10745 10.6994 7.03662 10.5244 6.88662 10.3744L2.48662 5.97442L6.91162 1.54942C7.04495 1.41609 7.10745 1.23692 7.09912 1.01192C7.09078 0.786923 7.01995 0.607756 6.88662 0.474423C6.71995 0.307756 6.54078 0.22859 6.34912 0.236923C6.15745 0.245257 5.98662 0.324423 5.83662 0.474423L0.861619 5.44942C0.778285 5.53276 0.719952 5.61609 0.686618 5.69942C0.653285 5.78276 0.636618 5.87442 0.636618 5.97442C0.636618 6.07442 0.653285 6.16609 0.686618 6.24942C0.719952 6.33276 0.778285 6.41609 0.861619 6.49942L5.81162 11.4494C5.96162 11.5994 6.13662 11.6703 6.33662 11.6619C6.53662 11.6536 6.71995 11.5828 6.88662 11.4494Z" fill="#1B1D1F"/>
</svg>
