<svg width="28" height="28" viewBox="0 0 28 28" fill="none" xmlns="http://www.w3.org/2000/svg">
<path fill-rule="evenodd" clip-rule="evenodd" d="M20.7023 8.20802C20.9366 7.9737 20.9366 7.5938 20.7023 7.35949C20.4679 7.12517 20.088 7.12517 19.8537 7.35949L14.3504 12.8628L8.83946 7.35184C8.60515 7.11752 8.22525 7.11752 7.99093 7.35184C7.75662 7.58615 7.75662 7.96605 7.99093 8.20037L13.5019 13.7113L7.35989 19.8533C7.12557 20.0876 7.12557 20.4675 7.35989 20.7019C7.5942 20.9362 7.9741 20.9362 8.20842 20.7019L14.3504 14.5599L20.4848 20.6942C20.7191 20.9285 21.099 20.9285 21.3333 20.6942C21.5676 20.4599 21.5676 20.08 21.3333 19.8457L15.1989 13.7113L20.7023 8.20802Z" fill="#365F71"/>
</svg>
