<svg width="20" height="20" viewBox="0 0 20 20" fill="none" xmlns="http://www.w3.org/2000/svg">
<path d="M11.6501 20H8.3501C8.16676 20 8.00426 19.9417 7.8626 19.825C7.72093 19.7083 7.63343 19.5583 7.6001 19.375L7.2001 16.85C6.88343 16.7333 6.5501 16.575 6.2001 16.375C5.8501 16.175 5.54176 15.9667 5.2751 15.75L2.9501 16.825C2.76676 16.9083 2.58343 16.9208 2.4001 16.8625C2.21676 16.8042 2.0751 16.6833 1.9751 16.5L0.325098 13.575C0.225098 13.4083 0.200098 13.2333 0.250098 13.05C0.300098 12.8667 0.400098 12.7167 0.550098 12.6L2.7001 11.025C2.66676 10.875 2.64593 10.7042 2.6376 10.5125C2.62926 10.3208 2.6251 10.15 2.6251 10C2.6251 9.85 2.62926 9.67917 2.6376 9.4875C2.64593 9.29583 2.66676 9.125 2.7001 8.975L0.550098 7.4C0.400098 7.28333 0.300098 7.13333 0.250098 6.95C0.200098 6.76667 0.225098 6.59167 0.325098 6.425L1.9751 3.5C2.0751 3.31667 2.21676 3.19583 2.4001 3.1375C2.58343 3.07917 2.76676 3.09167 2.9501 3.175L5.2751 4.25C5.54176 4.03333 5.8501 3.825 6.2001 3.625C6.5501 3.425 6.88343 3.275 7.2001 3.175L7.6001 0.625C7.63343 0.441667 7.72093 0.291667 7.8626 0.175C8.00426 0.0583333 8.16676 0 8.3501 0H11.6501C11.8334 0 11.9959 0.0583333 12.1376 0.175C12.2793 0.291667 12.3668 0.441667 12.4001 0.625L12.8001 3.15C13.1168 3.26667 13.4543 3.42083 13.8126 3.6125C14.1709 3.80417 14.4751 4.01667 14.7251 4.25L17.0501 3.175C17.2334 3.09167 17.4168 3.07917 17.6001 3.1375C17.7834 3.19583 17.9251 3.31667 18.0251 3.5L19.6751 6.4C19.7751 6.56667 19.8043 6.74583 19.7626 6.9375C19.7209 7.12917 19.6168 7.28333 19.4501 7.4L17.3001 8.925C17.3334 9.09167 17.3543 9.27083 17.3626 9.4625C17.3709 9.65417 17.3751 9.83333 17.3751 10C17.3751 10.1667 17.3709 10.3417 17.3626 10.525C17.3543 10.7083 17.3334 10.8833 17.3001 11.05L19.4501 12.6C19.6001 12.7167 19.7001 12.8667 19.7501 13.05C19.8001 13.2333 19.7751 13.4083 19.6751 13.575L18.0251 16.5C17.9251 16.6833 17.7834 16.8042 17.6001 16.8625C17.4168 16.9208 17.2334 16.9083 17.0501 16.825L14.7251 15.75C14.4584 15.9667 14.1543 16.1792 13.8126 16.3875C13.4709 16.5958 13.1334 16.75 12.8001 16.85L12.4001 19.375C12.3668 19.5583 12.2793 19.7083 12.1376 19.825C11.9959 19.9417 11.8334 20 11.6501 20ZM10.0001 13.25C10.9001 13.25 11.6668 12.9333 12.3001 12.3C12.9334 11.6667 13.2501 10.9 13.2501 10C13.2501 9.1 12.9334 8.33333 12.3001 7.7C11.6668 7.06667 10.9001 6.75 10.0001 6.75C9.1001 6.75 8.33343 7.06667 7.7001 7.7C7.06676 8.33333 6.7501 9.1 6.7501 10C6.7501 10.9 7.06676 11.6667 7.7001 12.3C8.33343 12.9333 9.1001 13.25 10.0001 13.25ZM10.0001 11.75C9.51676 11.75 9.10426 11.5792 8.7626 11.2375C8.42093 10.8958 8.2501 10.4833 8.2501 10C8.2501 9.51667 8.42093 9.10417 8.7626 8.7625C9.10426 8.42083 9.51676 8.25 10.0001 8.25C10.4834 8.25 10.8959 8.42083 11.2376 8.7625C11.5793 9.10417 11.7501 9.51667 11.7501 10C11.7501 10.4833 11.5793 10.8958 11.2376 11.2375C10.8959 11.5792 10.4834 11.75 10.0001 11.75ZM8.9001 18.5H11.1001L11.4501 15.7C12.0001 15.5667 12.5209 15.3583 13.0126 15.075C13.5043 14.7917 13.9501 14.45 14.3501 14.05L17.0001 15.2L18.0001 13.4L15.6501 11.675C15.7168 11.3917 15.7709 11.1125 15.8126 10.8375C15.8543 10.5625 15.8751 10.2833 15.8751 10C15.8751 9.71667 15.8584 9.4375 15.8251 9.1625C15.7918 8.8875 15.7334 8.60833 15.6501 8.325L18.0001 6.6L17.0001 4.8L14.3501 5.95C13.9668 5.51667 13.5334 5.15417 13.0501 4.8625C12.5668 4.57083 12.0334 4.38333 11.4501 4.3L11.1001 1.5H8.9001L8.5501 4.3C7.98343 4.41667 7.45426 4.61667 6.9626 4.9C6.47093 5.18333 6.03343 5.53333 5.6501 5.95L3.0001 4.8L2.0001 6.6L4.3501 8.325C4.28343 8.60833 4.22926 8.8875 4.1876 9.1625C4.14593 9.4375 4.1251 9.71667 4.1251 10C4.1251 10.2833 4.14593 10.5625 4.1876 10.8375C4.22926 11.1125 4.28343 11.3917 4.3501 11.675L2.0001 13.4L3.0001 15.2L5.6501 14.05C6.0501 14.45 6.49593 14.7917 6.9876 15.075C7.47926 15.3583 8.0001 15.5667 8.5501 15.7L8.9001 18.5Z" fill="black"/>
</svg>
