<svg width="16" height="16" viewBox="0 0 16 16" fill="none" xmlns="http://www.w3.org/2000/svg">
<path d="M1.75 14.25H2.66667L11.8958 5.02084L10.9792 4.10417L1.75 13.3333V14.25ZM14.5417 4.12501L11.875 1.45834L12.75 0.583338C12.9861 0.347227 13.2778 0.229172 13.625 0.229172C13.9722 0.229172 14.2639 0.347227 14.5 0.583338L15.4167 1.5C15.6528 1.73612 15.7708 2.02778 15.7708 2.37501C15.7708 2.72223 15.6528 3.01389 15.4167 3.25001L14.5417 4.12501ZM13.6667 5L3.16667 15.5H0.5V12.8333L11 2.33334L13.6667 5ZM11.4375 4.5625L10.9792 4.10417L11.8958 5.02084L11.4375 4.5625Z" fill="white"/>
</svg>
