<svg width="22" height="22" viewBox="0 0 22 22" fill="none" xmlns="http://www.w3.org/2000/svg">
<path d="M11.6188 6.41675L10.2438 6.41675L10.2438 11.9167L11.6188 11.9167L11.6188 6.41675ZM11 13.6126C10.7861 13.6126 10.6066 13.6813 10.4615 13.8188C10.3163 13.9563 10.2438 14.132 10.2438 14.3459C10.2438 14.5598 10.3163 14.7431 10.4615 14.8959C10.6066 15.0487 10.7861 15.1251 11 15.1251C11.2139 15.1251 11.3934 15.0487 11.5386 14.8959C11.6837 14.7431 11.7563 14.5598 11.7563 14.3459C11.7563 14.132 11.6837 13.9563 11.5386 13.8188C11.3934 13.6813 11.2139 13.6126 11 13.6126ZM11 1.83342C12.2528 1.83342 13.4368 2.07404 14.5521 2.55529C15.6674 3.03654 16.6413 3.69348 17.474 4.52612C18.3066 5.35876 18.9636 6.33272 19.4448 7.448C19.9261 8.56328 20.1667 9.75494 20.1667 11.023C20.1667 12.2758 19.9261 13.4598 19.4448 14.5751C18.9636 15.6904 18.3066 16.6605 17.474 17.4855C16.6413 18.3105 15.6674 18.9636 14.5521 19.4449C13.4368 19.9261 12.2452 20.1667 10.9771 20.1667C9.72433 20.1667 8.5403 19.9261 7.42502 19.4449C6.30974 18.9636 5.3396 18.3105 4.5146 17.4855C3.6896 16.6605 3.03648 15.6904 2.55523 14.5751C2.07398 13.4598 1.83335 12.2681 1.83335 11.0001C1.83335 9.7473 2.07398 8.56327 2.55523 7.448C3.03648 6.33272 3.6896 5.35876 4.5146 4.52612C5.3396 3.69348 6.30974 3.03654 7.42502 2.55529C8.5403 2.07404 9.73197 1.83342 11 1.83342ZM10.9771 3.20842C8.82294 3.20841 6.98961 3.96848 5.4771 5.48862C3.9646 7.00876 3.20835 8.85355 3.20835 11.023C3.20835 13.1772 3.9646 15.0105 5.4771 16.523C6.9896 18.0355 8.83058 18.7917 11 18.7917C13.1542 18.7917 14.9913 18.0355 16.5115 16.523C18.0316 15.0105 18.7917 13.1695 18.7917 11.0001C18.7917 8.84591 18.0316 7.00876 16.5115 5.48862C14.9913 3.96848 13.1465 3.20842 10.9771 3.20842Z" fill="#FF0000"/>
</svg>
