<svg width="24" height="24" viewBox="0 0 24 24" fill="none" xmlns="http://www.w3.org/2000/svg">
<path d="M8.84996 6.44901C8.71662 6.61568 8.64579 6.79902 8.63746 6.99902C8.62912 7.19902 8.69996 7.37401 8.84996 7.52402L13.25 11.924L8.82495 16.349C8.69162 16.4823 8.62912 16.6615 8.63745 16.8865C8.64579 17.1115 8.71662 17.2907 8.84995 17.424C9.01662 17.5907 9.19579 17.6698 9.38745 17.6615C9.57912 17.6532 9.74995 17.574 9.89995 17.424L14.875 12.449C14.9583 12.3657 15.0166 12.2823 15.05 12.199C15.0833 12.1157 15.1 12.024 15.1 11.924C15.1 11.824 15.0833 11.7323 15.05 11.649C15.0166 11.5657 14.9583 11.4823 14.875 11.399L9.92496 6.44901C9.77496 6.29901 9.59996 6.22818 9.39996 6.23652C9.19996 6.24485 9.01662 6.31568 8.84996 6.44901Z" fill="#1B1D1F"/>
</svg>
