<svg width="18" height="16" viewBox="0 0 18 16" fill="none" xmlns="http://www.w3.org/2000/svg">
<path d="M15.6667 2.33268H13.0251L11.5001 0.666016H6.50008L4.97508 2.33268H2.33341C1.41675 2.33268 0.666748 3.08268 0.666748 3.99935V13.9993C0.666748 14.916 1.41675 15.666 2.33341 15.666H15.6667C16.5834 15.666 17.3334 14.916 17.3334 13.9993V3.99935C17.3334 3.08268 16.5834 2.33268 15.6667 2.33268ZM15.6667 13.9993H2.33341V3.99935H5.70841L7.23341 2.33268H10.7667L12.2917 3.99935H15.6667V13.9993ZM9.00008 4.83268C6.70008 4.83268 4.83341 6.69935 4.83341 8.99935C4.83341 11.2993 6.70008 13.166 9.00008 13.166C11.3001 13.166 13.1667 11.2993 13.1667 8.99935C13.1667 6.69935 11.3001 4.83268 9.00008 4.83268ZM9.00008 11.4993C7.62508 11.4993 6.50008 10.3743 6.50008 8.99935C6.50008 7.62435 7.62508 6.49935 9.00008 6.49935C10.3751 6.49935 11.5001 7.62435 11.5001 8.99935C11.5001 10.3743 10.3751 11.4993 9.00008 11.4993Z" fill="#AAADAE"/>
</svg>
