<svg width="22" height="16" viewBox="0 0 22 16" fill="none" xmlns="http://www.w3.org/2000/svg">
<path d="M7.60023 15.3999C7.46689 15.3999 7.34467 15.3776 7.23356 15.3332C7.12245 15.2888 7.01134 15.211 6.90023 15.0999L0.866894 9.06654C0.666894 8.86654 0.566895 8.62209 0.566895 8.3332C0.566895 8.04431 0.666894 7.79987 0.866894 7.59987C1.06689 7.39987 1.30023 7.29987 1.56689 7.29987C1.83356 7.29987 2.06689 7.39987 2.26689 7.59987L7.60023 12.9332L19.7002 0.833203C19.9002 0.633203 20.1391 0.533203 20.4169 0.533203C20.6947 0.533203 20.9336 0.633203 21.1336 0.833203C21.3336 1.0332 21.4336 1.27209 21.4336 1.54987C21.4336 1.82765 21.3336 2.06654 21.1336 2.26654L8.30023 15.0999C8.18912 15.211 8.07801 15.2888 7.96689 15.3332C7.85578 15.3776 7.73356 15.3999 7.60023 15.3999Z" fill="#63D020"/>
</svg>
