<svg width="16" height="12" viewBox="0 0 16 12" fill="none" xmlns="http://www.w3.org/2000/svg">
<path d="M0.5 6C5 -0.666667 11 -0.666667 15.5 6C11 12.6667 5 12.6667 0.5 6Z" stroke="white" stroke-linejoin="round"/>
<path d="M10.5 6C10.5 6.66304 10.2366 7.29893 9.76777 7.76777C9.29893 8.23661 8.66304 8.5 8 8.5C7.33696 8.5 6.70107 8.23661 6.23223 7.76777C5.76339 7.29893 5.5 6.66304 5.5 6C5.5 5.33696 5.76339 4.70107 6.23223 4.23223C6.70107 3.76339 7.33696 3.5 8 3.5C8.66304 3.5 9.29893 3.76339 9.76777 4.23223C10.2366 4.70107 10.5 5.33696 10.5 6V6Z" stroke="white" stroke-linejoin="round"/>
</svg>
