<svg width="12" height="8" viewBox="0 0 12 8" fill="none" xmlns="http://www.w3.org/2000/svg">
<path d="M11.4504 1.11338C11.2837 0.980049 11.1004 0.909215 10.9004 0.900881C10.7004 0.892548 10.5254 0.963382 10.3754 1.11338L5.9754 5.51338L1.5504 1.08838C1.41707 0.955048 1.2379 0.892548 1.0129 0.900882C0.787899 0.909215 0.608733 0.980049 0.4754 1.11338C0.308733 1.28005 0.229567 1.45922 0.2379 1.65088C0.246233 1.84255 0.3254 2.01338 0.4754 2.16338L5.4504 7.13838C5.53373 7.22171 5.61707 7.28005 5.7004 7.31338C5.78373 7.34671 5.8754 7.36338 5.9754 7.36338C6.0754 7.36338 6.16707 7.34671 6.2504 7.31338C6.33373 7.28005 6.41707 7.22171 6.5004 7.13838L11.4504 2.18838C11.6004 2.03838 11.6712 1.86338 11.6629 1.66338C11.6546 1.46338 11.5837 1.28005 11.4504 1.11338Z" fill="black"/>
</svg>
